<svg xmlns="http://www.w3.org/2000/svg" width="50" height="50" viewBox="0 0 50 50" fill="none">
<g clip-path="url(#clip0_8776_388)">
<path d="M20.2305 34.0234V41.6607H30.6705V34.0234C30.6705 31.7564 29.4177 29.6894 27.4689 28.4892L25.5897 27.3557C25.5201 27.289 25.3809 27.289 25.2417 27.3557L23.3625 28.4892C21.4137 29.6894 20.2305 31.7564 20.2305 34.0234Z" fill="#1d5da0"/>
<path d="M45.584 21.1716H5.43014C5.22245 21.1716 5.08398 21.0331 5.08398 20.8254V18.7485C5.08398 18.5408 5.22245 18.4023 5.43014 18.4023H15.8148C16.0224 18.4023 16.1609 18.5408 16.1609 18.7485C16.1609 18.9562 16.0224 19.0947 15.8148 19.0947H5.77629V20.4793H45.2378V19.0947H35.1994C34.9917 19.0947 34.8532 18.9562 34.8532 18.7485C34.8532 18.5408 34.9917 18.4023 35.1994 18.4023H45.5148C45.7224 18.4023 45.8609 18.5408 45.8609 18.7485V20.8254C45.9301 21.0331 45.7917 21.1716 45.584 21.1716Z" fill="#494949"/>
<path d="M47.6538 41.9286H3.34615C3.13846 41.9286 3 41.7902 3 41.5825C3 41.3748 3.13846 41.2363 3.34615 41.2363H47.6538C47.8615 41.2363 48 41.3748 48 41.5825C48 41.7902 47.8615 41.9286 47.6538 41.9286Z" fill="#494949"/>
<path d="M44.8849 41.9205H6.11569C5.90799 41.9205 5.76953 41.7821 5.76953 41.5744V26.3436C5.76953 26.1359 5.90799 25.9974 6.11569 25.9974C6.32338 25.9974 6.46184 26.1359 6.46184 26.3436V41.2282H44.5388V26.3436C44.5388 26.1359 44.6772 25.9974 44.8849 25.9974C45.0926 25.9974 45.2311 26.1359 45.2311 26.3436V41.5744C45.2311 41.7821 45.0926 41.9205 44.8849 41.9205ZM44.8849 24.6128C44.6772 24.6128 44.5388 24.4744 44.5388 24.2667V21.1513H6.46184V24.2667C6.46184 24.4744 6.32338 24.6128 6.11569 24.6128C5.90799 24.6128 5.76953 24.4744 5.76953 24.2667V20.8051C5.76953 20.5974 5.90799 20.459 6.11569 20.459H44.8849C45.0926 20.459 45.2311 20.5974 45.2311 20.8051V24.2667C45.2311 24.4744 45.0926 24.6128 44.8849 24.6128Z" fill="#494949"/>
<path d="M18.9089 26.6926H4.71655C4.57809 26.6926 4.43963 26.6233 4.3704 26.4849L3.67809 24.408C3.60886 24.2695 3.67809 24.2003 3.74732 24.0618C3.81655 23.9926 3.88578 23.9233 4.02424 23.9233H19.255C19.4627 23.9233 19.6012 24.0618 19.6012 24.2695C19.6012 24.4772 19.4627 24.6156 19.255 24.6156H4.50886L4.99348 26.0003H18.9089C19.1166 26.0003 19.255 26.1387 19.255 26.3464C19.255 26.5541 19.1166 26.6926 18.9089 26.6926ZM46.255 26.6926H32.0627C31.855 26.6926 31.7166 26.5541 31.7166 26.3464C31.7166 26.1387 31.855 26.0003 32.0627 26.0003H45.9781L46.4627 24.6156H32.0627C31.855 24.6156 31.7166 24.4772 31.7166 24.2695C31.7166 24.0618 31.855 23.9233 32.0627 23.9233H46.9473C47.0858 23.9233 47.155 23.9926 47.2242 24.0618C47.2935 24.131 47.2935 24.2695 47.2935 24.408L46.6012 26.4849C46.5319 26.6233 46.3935 26.6926 46.255 26.6926Z" fill="#494949"/>
<path d="M19.2667 41.9127H15.8051C15.5974 41.9127 15.459 41.7742 15.459 41.5665V15.9511C15.459 15.7434 15.5974 15.605 15.8051 15.605H19.2667C19.4744 15.605 19.6128 15.7434 19.6128 15.9511V41.5665C19.6128 41.7742 19.4744 41.9127 19.2667 41.9127ZM16.1513 41.2204H18.9205V16.2973H16.1513V41.2204Z" fill="#494949"/>
<path d="M18.5764 16.3105H16.4995C16.2918 16.3105 16.1533 16.172 16.1533 15.9644V11.8105C16.1533 11.6028 16.2918 11.4644 16.4995 11.4644H18.5764C18.7841 11.4644 18.9226 11.6028 18.9226 11.8105V15.9644C18.9226 16.172 18.7841 16.3105 18.5764 16.3105ZM16.8456 15.6182H18.2302V12.1567H16.8456V15.6182Z" fill="#494949"/>
<path d="M18.5858 12.505C18.3781 12.505 18.2396 12.3666 18.2396 12.1589V10.7743C18.2396 10.3589 17.9627 10.082 17.5473 10.082C17.1319 10.082 16.855 10.3589 16.855 10.7743V12.1589C16.855 12.3666 16.7166 12.505 16.5089 12.505C16.3012 12.505 16.1627 12.3666 16.1627 12.1589V10.7743C16.1627 10.0127 16.7858 9.38965 17.5473 9.38965C18.3089 9.38965 18.9319 10.0127 18.9319 10.7743V12.1589C18.9319 12.3666 18.7935 12.505 18.5858 12.505ZM12.7012 41.9281H9.93194C9.72425 41.9281 9.58579 41.7896 9.58579 41.582V36.7358C9.58579 34.9358 11.1781 34.382 11.2473 34.3127H11.455C11.5242 34.3127 13.0473 34.9358 13.0473 36.7358V41.582C13.0473 41.7896 12.9089 41.9281 12.7012 41.9281ZM10.2781 41.2358H12.355V36.7358C12.355 35.6973 11.6627 35.2127 11.3166 35.005C11.0396 35.1435 10.2781 35.6281 10.2781 36.7358V41.2358ZM30.355 41.582C30.1473 41.582 30.0089 41.4435 30.0089 41.2358V33.6204C30.0089 31.5435 28.9704 29.605 27.1704 28.4281L25.5089 27.3896L23.8473 28.4973C22.1166 29.605 21.0089 31.5435 21.0089 33.6204V41.2358C21.0089 41.4435 20.8704 41.582 20.6627 41.582C20.455 41.582 20.3166 41.4435 20.3166 41.2358V33.6896C20.3166 31.3358 21.4935 29.1897 23.4319 27.9435L25.3012 26.7666C25.4396 26.6973 25.5781 26.6973 25.6473 26.7666L27.5166 27.9435C29.455 29.1897 30.7012 31.3358 30.7012 33.6896V41.305C30.7012 41.4435 30.5627 41.582 30.355 41.582ZM14.0858 33.6204H8.54733C8.33963 33.6204 8.20117 33.482 8.20117 33.2743C8.20117 33.0666 8.33963 32.9281 8.54733 32.9281H14.0858C14.2935 32.9281 14.4319 33.0666 14.4319 33.2743C14.4319 33.482 14.2935 33.6204 14.0858 33.6204Z" fill="#494949"/>
<path d="M17.5415 10.0077C17.3338 10.0077 17.1953 9.86923 17.1953 9.66154V8.34615C17.1953 8.13846 17.3338 8 17.5415 8C17.7492 8 17.8876 8.13846 17.8876 8.34615V9.66154C17.8876 9.86923 17.7492 10.0077 17.5415 10.0077ZM35.1953 41.9231H31.7338C31.5261 41.9231 31.3876 41.7846 31.3876 41.5769V15.9615C31.3876 15.7538 31.5261 15.6154 31.7338 15.6154H35.1953C35.403 15.6154 35.5415 15.7538 35.5415 15.9615V41.5769C35.5415 41.7846 35.403 41.9231 35.1953 41.9231ZM32.0799 41.2308H34.8492V16.3077H32.0799V41.2308Z" fill="#494949"/>
<path d="M34.5002 16.3105H32.4233C32.2156 16.3105 32.0771 16.172 32.0771 15.9644V11.8105C32.0771 11.6028 32.2156 11.4644 32.4233 11.4644H34.5002C34.7079 11.4644 34.8464 11.6028 34.8464 11.8105V15.9644C34.8464 16.172 34.7079 16.3105 34.5002 16.3105ZM32.7695 15.6182H34.1541V12.1567H32.7695V15.6182Z" fill="#494949"/>
<path d="M34.5002 12.505C34.2925 12.505 34.1541 12.3666 34.1541 12.1589V10.7743C34.1541 10.3589 33.8771 10.082 33.4618 10.082C33.0464 10.082 32.7695 10.3589 32.7695 10.7743V12.1589C32.7695 12.3666 32.631 12.505 32.4233 12.505C32.2156 12.505 32.0771 12.3666 32.0771 12.1589V10.7743C32.0771 10.0127 32.7002 9.38965 33.4618 9.38965C34.2233 9.38965 34.8464 10.0127 34.8464 10.7743V12.1589C34.8464 12.3666 34.7079 12.505 34.5002 12.505Z" fill="#494949"/>
<path d="M33.4704 10.0077C33.2627 10.0077 33.1243 9.86923 33.1243 9.66154V8.34615C33.1243 8.13846 33.2627 8 33.4704 8C33.6781 8 33.8166 8.13846 33.8166 8.34615V9.66154C33.8166 9.86923 33.6781 10.0077 33.4704 10.0077ZM21.355 24.6154C21.1473 24.6154 21.0089 24.4769 21.0089 24.2692V20.8077C21.0089 20.6 21.1473 20.4615 21.355 20.4615C21.5627 20.4615 21.7012 20.6 21.7012 20.8077V24.2692C21.7012 24.4769 21.5627 24.6154 21.355 24.6154ZM23.4319 24.6154C23.2242 24.6154 23.0858 24.4769 23.0858 24.2692V20.8077C23.0858 20.6 23.2242 20.4615 23.4319 20.4615C23.6396 20.4615 23.7781 20.6 23.7781 20.8077V24.2692C23.7781 24.4769 23.6396 24.6154 23.4319 24.6154ZM25.5089 24.6154C25.3012 24.6154 25.1627 24.4769 25.1627 24.2692V20.8077C25.1627 20.6 25.3012 20.4615 25.5089 20.4615C25.7166 20.4615 25.855 20.6 25.855 20.8077V24.2692C25.855 24.4769 25.7166 24.6154 25.5089 24.6154ZM27.5858 24.6154C27.3781 24.6154 27.2396 24.4769 27.2396 24.2692V20.8077C27.2396 20.6 27.3781 20.4615 27.5858 20.4615C27.7935 20.4615 27.9319 20.6 27.9319 20.8077V24.2692C27.9319 24.4769 27.7935 24.6154 27.5858 24.6154ZM29.6627 24.6154C29.455 24.6154 29.3166 24.4769 29.3166 24.2692V20.8077C29.3166 20.6 29.455 20.4615 29.6627 20.4615C29.8704 20.4615 30.0089 20.6 30.0089 20.8077V24.2692C30.0089 24.4769 29.8704 24.6154 29.6627 24.6154ZM14.0858 41.9231C13.8781 41.9231 13.7396 41.7846 13.7396 41.5769V33.3385C13.7396 31.6769 12.8396 30.2231 11.3858 29.5308H11.2473C9.79348 30.2923 8.89348 31.7462 8.89348 33.3385V41.5769C8.89348 41.7846 8.75502 41.9231 8.54733 41.9231C8.33963 41.9231 8.20117 41.7846 8.20117 41.5769V33.3385C8.20117 31.4692 9.23963 29.7385 10.9704 28.9077C11.1781 28.7692 11.455 28.7692 11.7319 28.9077C13.4627 29.7385 14.5012 31.4692 14.5012 33.3385V41.5769C14.4319 41.7846 14.2935 41.9231 14.0858 41.9231ZM41.0858 41.9231H38.3166C38.1089 41.9231 37.9704 41.7846 37.9704 41.5769V36.7308C37.9704 34.9308 39.5627 34.3769 39.6319 34.3077H39.8396C39.9089 34.3077 41.4319 34.9308 41.4319 36.7308V41.5769C41.4319 41.7846 41.2935 41.9231 41.0858 41.9231ZM38.6627 41.2308H40.7396V36.7308C40.7396 35.6923 40.0473 35.2077 39.7012 35C39.4243 35.1385 38.6627 35.6231 38.6627 36.7308V41.2308ZM42.4704 33.6154H37.0012C36.7935 33.6154 36.655 33.4769 36.655 33.2692C36.655 33.0615 36.7935 32.9231 37.0012 32.9231H42.4704C42.6781 32.9231 42.8166 33.0615 42.8166 33.2692C42.8166 33.4769 42.6089 33.6154 42.4704 33.6154Z" fill="#494949"/>
<path d="M21.3715 24.6128C21.1639 24.6128 21.0254 24.4744 21.0254 24.2667V20.8051C21.0254 20.5974 21.1639 20.459 21.3715 20.459C21.5792 20.459 21.7177 20.5974 21.7177 20.8051V24.2667C21.7177 24.4744 21.5792 24.6128 21.3715 24.6128Z" fill="#1d5da0"/>
<path d="M25.55 24.6128C25.3307 24.6128 25.1846 24.4744 25.1846 24.2667V20.8051C25.1846 20.5974 25.3307 20.459 25.55 20.459C25.7692 20.459 25.9154 20.5974 25.9154 20.8051V24.2667C25.9154 24.4744 25.7692 24.6128 25.55 24.6128Z" fill="#1d5da0"/>
<path d="M29.7408 24.6768C29.5137 24.6768 29.3623 24.5383 29.3623 24.3306V20.8691C29.3623 20.6614 29.5137 20.5229 29.7408 20.5229C29.9678 20.5229 30.1192 20.6614 30.1192 20.8691V24.3306C30.1192 24.5383 29.9678 24.6768 29.7408 24.6768Z" fill="#1d5da0"/>
<path d="M42.4593 41.933C42.2516 41.933 42.1131 41.7945 42.1131 41.5868V33.3483C42.1131 31.6868 41.2131 30.233 39.7593 29.5406H39.6208C38.167 30.3022 37.267 31.756 37.267 33.3483V41.5868C37.267 41.7945 37.1285 41.933 36.9208 41.933C36.7131 41.933 36.5747 41.7945 36.5747 41.5868V33.3483C36.5747 31.4791 37.6131 29.7483 39.3439 28.9176C39.5516 28.7791 39.8285 28.7791 40.1054 28.9176C41.8362 29.7483 42.8747 31.4791 42.8747 33.3483V41.5868C42.8054 41.7945 42.667 41.933 42.4593 41.933ZM31.9362 16.3176H19.267C19.0593 16.3176 18.9208 16.1791 18.9208 15.9714C18.9208 15.7637 19.0593 15.6253 19.267 15.6253H31.9362C32.1439 15.6253 32.2824 15.7637 32.2824 15.9714C32.2824 16.1791 32.1439 16.3176 31.9362 16.3176ZM31.9362 24.6253H19.267C19.0593 24.6253 18.9208 24.4868 18.9208 24.2791C18.9208 24.0714 19.0593 23.933 19.267 23.933H31.9362C32.1439 23.933 32.2824 24.0714 32.2824 24.2791C32.2824 24.4868 32.1439 24.6253 31.9362 24.6253ZM32.0747 14.2406H18.5747C18.367 14.2406 18.2285 14.1022 18.2285 13.8945C18.2285 13.6868 18.367 13.5483 18.5747 13.5483H32.0747C32.2824 13.5483 32.4208 13.6868 32.4208 13.8945C32.4208 14.1022 32.2824 14.2406 32.0747 14.2406Z" fill="#494949"/>
</g>
<defs fill="#000000">
<clipPath id="clip0_8776_388" fill="#000000">
<rect width="45" height="33.9331" fill="white" transform="translate(3 8)"/>
</clipPath>
</defs>
</svg>