<svg xmlns="http://www.w3.org/2000/svg" width="50" height="50" viewBox="0 0 50 50" fill="none">
<g clip-path="url(#clip0_8776_511)">
<path d="M34.308 8.5208C34.3099 7.04382 34.3107 5.67849 34.3153 4.31317C34.3155 4.23474 34.3458 4.15642 34.3784 4C34.7033 4 35.0434 4 35.4728 4C35.4728 10.5052 35.4728 16.9845 35.4728 23.5964C37.989 23.5964 40.419 23.5951 42.849 23.5968C44.5029 23.5979 44.5317 23.6215 44.5325 25.2509C44.5355 31.6227 44.5339 37.9944 44.5341 44.3661C44.5341 44.8164 44.5341 45.2667 44.5341 45.8448C45.7266 45.8448 46.8633 45.8448 48 45.8448C47.9993 45.9159 47.9986 45.987 47.998 46.0581C33.0022 46.0581 18.0064 46.0581 3.01055 46.0581C3.00703 46.014 3.00352 45.9698 3 45.9257C4.10022 45.9257 5.20043 45.9257 6.42569 45.9257C6.42569 43.8724 6.42565 41.9444 6.4257 40.0163C6.42578 37.2029 6.42459 34.3894 6.42653 31.5759C6.42777 29.7791 6.42986 29.7787 8.20809 29.7693C8.57437 29.7674 8.94066 29.769 9.4583 29.769C9.4583 28.8203 9.40877 27.9619 9.48741 27.1154C9.51214 26.8492 9.88104 26.615 10.0924 26.3662C10.2743 26.6004 10.5941 26.824 10.6129 27.0706C10.6778 27.9236 10.6379 28.7846 10.6379 29.7039C13.0474 29.7039 15.3077 29.7039 17.7733 29.7039C17.7733 29.2663 17.7733 28.8343 17.7733 28.4024C17.7734 25.3407 17.7613 22.2788 17.7878 19.2173C17.7914 18.7959 17.8821 18.0866 18.1111 18.0036C19.3918 17.5395 19.0887 16.51 19.0239 15.6342C18.9442 14.5574 19.3963 14.1271 20.3874 13.8057C24.8202 12.368 29.2273 10.8503 33.6327 9.32994C33.9055 9.2358 34.0849 8.8712 34.308 8.5208ZM21.0952 18.3258C18.9443 19.0254 18.9478 19.0254 18.9522 21.269C18.9676 28.9553 18.9804 36.6417 18.994 44.328C18.9948 44.8077 18.9941 45.2874 18.9941 45.7931C24.106 45.7931 29.0402 45.7931 34.024 45.7931C34.024 35.3654 34.024 25.0239 34.024 14.4799C29.6866 15.783 25.4923 17.0431 21.0952 18.3258ZM43.0813 28.8814C43.0813 27.6199 43.0813 26.3583 43.0813 25.0979C40.4729 25.0979 38.0929 25.0979 35.6797 25.0979C35.6797 32.0532 35.6797 38.9247 35.6797 45.8011C38.1752 45.8011 40.5568 45.8011 43.0814 45.8011C43.0814 40.1925 43.0814 34.6609 43.0813 28.8814ZM7.78804 41.5434C7.78804 42.9682 7.78804 44.393 7.78804 45.791C11.1435 45.791 14.2658 45.791 17.3895 45.791C17.3895 40.8999 17.3895 36.0984 17.3895 31.3098C14.1512 31.3098 11.0324 31.3098 7.78803 31.3098C7.78803 34.7011 7.78803 37.9982 7.78804 41.5434ZM21.0778 14.8638C19.7554 15.176 20.2738 16.1328 20.2871 17.1111C22.1078 16.5607 23.8191 16.039 25.5331 15.5263C28.2423 14.7158 30.9522 13.908 33.6639 13.1061C34.8288 12.7616 34.2267 11.8141 34.2833 11.1238C34.2896 11.0468 33.4252 10.7204 33.0487 10.8218C31.7008 11.185 30.3863 11.6741 29.0646 12.131C26.4669 13.029 23.8728 13.9373 21.0778 14.8638Z" fill="#858585"/>
<path d="M21.1779 14.8528C23.8732 13.9376 26.4673 13.0293 29.065 12.1313C30.3867 11.6744 31.7013 11.1853 33.0491 10.8221C33.4256 10.7207 34.29 11.0471 34.2837 11.1241C34.2271 11.8143 34.8292 12.7618 33.6643 13.1063C30.9526 13.9083 28.2427 14.7161 25.5335 15.5265C23.8195 16.0393 22.1082 16.561 20.2875 17.1114C20.2742 16.133 19.7558 15.1763 21.1779 14.8528Z" fill="#1d5da0"/>
<path d="M31.0499 43.1647C28.2906 43.1647 25.6468 43.1651 23.003 43.1641C22.7139 43.164 22.3896 43.2376 22.1444 43.1317C21.8047 42.985 21.5245 42.7006 21.2188 42.4752C21.529 42.2157 21.8353 41.7362 22.15 41.7307C25.3299 41.675 28.5113 41.6796 31.6915 41.7251C31.9883 41.7293 32.2795 42.1297 32.5733 42.3462C32.104 42.619 31.6347 42.8918 31.0499 43.1647Z" fill="#858585"/>
<path d="M28.6434 34.9826C29.7181 34.9844 30.6774 34.9169 31.6165 35.0247C31.956 35.0638 32.2473 35.5233 32.5605 35.7909C32.2571 36.0114 31.9566 36.419 31.6499 36.4236C28.4658 36.4719 25.2806 36.473 22.0965 36.4275C21.8035 36.4233 21.5164 36.0074 21.2266 35.7826C21.5896 35.5167 21.9448 35.0343 22.3171 35.0207C24.3824 34.945 26.4519 34.9833 28.6434 34.9826Z" fill="#1d5da0"/>
<path d="M23.8272 20.2866C23.0501 19.3594 23.5732 18.9098 24.4009 18.8853C26.7482 18.8158 29.1003 18.8208 31.4469 18.9026C31.8277 18.9159 32.1897 19.4707 32.5604 19.7751C32.1575 19.9592 31.7574 20.2952 31.3514 20.3025C28.8792 20.3472 26.4057 20.3172 23.8272 20.2866Z" fill="#1d5da0"/>
<path d="M23.501 29.1857C23.7035 28.8091 23.9388 28.2999 24.1856 28.2943C26.7426 28.2359 29.3017 28.2458 31.8597 28.2802C32.0962 28.2834 32.3286 28.5861 32.563 28.7497C32.3434 28.9907 32.1228 29.4418 31.9044 29.4407C29.1158 29.4272 26.3275 29.3488 23.501 29.1857Z" fill="#858585"/>
<path d="M29.4795 23.137C30.4013 22.9455 31.2778 22.8185 32.1574 22.792C32.2349 22.7897 32.5186 23.5619 32.3859 23.7721C31.9551 24.4546 29.7455 24.0108 29.4795 23.137Z" fill="#858585"/>
<path d="M29.6582 32.8186C29.7317 32.3625 29.8207 31.6894 30.0412 31.6432C30.6933 31.5065 31.4053 31.5638 32.0759 31.665C32.2728 31.6947 32.5578 32.1408 32.5318 32.3648C32.5061 32.587 32.1504 32.9248 31.9203 32.941C31.1963 32.9917 30.4634 32.9152 29.6582 32.8186Z" fill="#1d5da0"/>
<path d="M38.8815 44.1401C38.3774 43.8968 37.9831 43.6535 37.5889 43.4102C37.9787 43.1613 38.3402 42.817 38.7664 42.6906C39.1801 42.5679 39.6911 42.5711 40.1016 42.7013C40.4581 42.8143 40.7339 43.1821 41.0454 43.4372C40.7297 43.6711 40.4437 43.9891 40.0896 44.1142C39.7614 44.2301 39.3603 44.1398 38.8815 44.1401Z" fill="#1d5da0"/>
<path d="M37.5898 40.1592C38.075 39.4373 40.4968 39.1195 40.8571 39.6895C40.9977 39.912 40.892 40.5098 40.6842 40.6913C40.0832 41.2161 38.1796 40.8952 37.5898 40.1592Z" fill="#858585"/>
<path d="M38.8625 33.2303C39.4713 33.2332 39.9769 33.1731 40.4527 33.2661C40.6822 33.311 41.008 33.6419 41.0107 33.8469C41.0133 34.0472 40.6817 34.3933 40.4589 34.4274C39.8961 34.5135 39.3005 34.5303 38.7402 34.439C38.3378 34.3734 37.6782 34.1341 37.6409 33.8936C37.5052 33.0194 38.2677 33.2935 38.8625 33.2303Z" fill="#1d5da0"/>
<path d="M12.3359 40.6404C11.9188 40.5604 11.5445 40.5598 11.3122 40.3779C11.0943 40.2074 10.9322 39.8446 10.9336 39.5673C10.9343 39.4341 11.3606 39.21 11.6079 39.189C12.2605 39.1338 12.9306 39.0995 13.5736 39.1936C13.8981 39.2411 14.1792 39.5852 14.4799 39.7952C14.2107 40.07 13.9868 40.4588 13.6599 40.5891C13.3032 40.7312 12.8511 40.6337 12.3359 40.6404Z" fill="#858585"/>
<path d="M13.1832 36.2007C13.6871 36.3979 14.0792 36.595 14.4713 36.7922C14.0748 37.082 13.7147 37.5046 13.272 37.6262C12.7804 37.7611 12.1824 37.7195 11.691 37.5641C11.4031 37.473 11.2329 37.01 11.0098 36.7143C11.2842 36.5435 11.5402 36.2876 11.8377 36.2229C12.2319 36.1373 12.6586 36.2011 13.1832 36.2007Z" fill="#1d5da0"/>
<path d="M11.6553 32.9751C12.4224 32.9745 13.0882 32.9266 13.7398 33.0017C13.9935 33.0309 14.2152 33.3374 14.4514 33.5175C14.2159 33.7418 14.0016 34.125 13.7409 34.1596C13.0516 34.2511 12.3375 34.2388 11.6434 34.168C11.3838 34.1415 11.1524 33.8386 10.9082 33.6617C11.1216 33.4334 11.3349 33.2052 11.6553 32.9751Z" fill="#1d5da0"/>
</g>
<defs fill="#000000">
<clipPath id="clip0_8776_511" fill="#000000">
<rect width="45" height="42.0581" fill="white" transform="translate(3 4)"/>
</clipPath>
</defs>
</svg>