<svg xmlns="http://www.w3.org/2000/svg" width="50" height="50" viewBox="0 0 50 50" fill="none">
<g clip-path="url(#clip0_8776_480)">
<path d="M18.0032 13.4473C17.9072 13.5193 17.8352 14.0713 17.8352 14.6473C17.8352 15.5113 17.7632 15.6793 17.3552 15.6793C16.9472 15.6793 16.8032 15.8474 16.8272 16.3994C16.8272 16.4714 16.8992 16.9034 16.9952 17.3594C17.1632 18.1034 17.1392 18.1514 16.8032 17.8874C15.6751 16.9514 10.563 16.5434 8.11492 17.2154C7.4669 17.3834 6.29086 17.9354 5.52284 18.4154L4.1548 19.3035V28.1597V37.016L3.62679 37.088C3.31478 37.136 3.05077 37.352 3.00277 37.592C2.93077 37.976 4.1068 38 25.3474 38C37.6598 38 47.8121 37.928 47.9081 37.856C48.1961 37.568 47.7641 37.04 47.2121 37.04H46.636V28.3277C46.636 21.7035 46.564 19.5195 46.348 19.2315C45.82 18.6074 43.6839 17.4554 42.5079 17.1674C40.1558 16.5674 35.3317 16.9274 34.3717 17.7434C33.7477 18.2954 33.6037 18.1274 33.7957 16.9754C33.9397 16.0154 33.8917 15.8714 33.4597 15.7514C33.0756 15.6554 32.9556 15.3913 32.9076 14.5033L32.8356 13.3993L25.4914 13.3273C21.4593 13.3033 18.0992 13.3513 18.0032 13.4473ZM31.8756 14.9593V15.5593L25.3474 15.6313L18.7952 15.6793V14.9593V14.2393L25.3474 14.2873L31.8756 14.3593V14.9593ZM32.5956 17.6474C32.4996 18.2234 32.3076 19.0634 32.1396 19.5195L31.8756 20.3595L25.7554 20.4315C22.3953 20.4555 19.4192 20.4315 19.1552 20.3835C18.7712 20.2875 18.5792 19.9275 18.3632 18.8474C17.8592 16.3994 17.0912 16.6394 25.4194 16.6394H32.7636L32.5956 17.6474ZM14.5231 18.1034C15.2191 18.2714 16.1792 18.6554 16.6832 18.9674C17.4752 19.4955 17.5952 19.7115 17.7392 20.8635C17.8112 21.5595 17.8112 22.3275 17.7392 22.5436C17.5952 22.9036 17.5472 22.9036 17.1152 22.5195C16.3952 21.8715 13.6111 21.1995 11.643 21.1995C9.62696 21.1995 7.29889 21.7275 6.14686 22.4475L5.35484 22.9276V21.3675C5.35484 19.8315 5.37884 19.7835 6.24286 19.2315C8.35492 17.9114 11.523 17.4794 14.5231 18.1034ZM43.996 18.9434L45.316 19.6875L45.388 21.3195L45.46 22.9276L44.668 22.4475C42.0279 20.8395 36.3637 20.8155 33.7477 22.4475L32.9556 22.9276V21.7515C32.9556 20.0955 33.1236 19.6635 33.9877 19.1355C35.4517 18.2474 36.3397 18.1034 39.5558 18.1514C42.5559 18.1994 42.7239 18.2234 43.996 18.9434ZM31.7556 22.0395V22.6396H25.2754H18.7952V22.0395V21.4395H25.2754H31.7556V22.0395ZM15.0511 22.7356C15.6751 22.9276 16.5632 23.3596 17.0192 23.7196L17.8352 24.3436L17.7872 30.6318L17.7152 36.92L11.547 36.992L5.35484 37.04V30.5838V24.1276L6.21886 23.5756C6.69888 23.2876 7.4909 22.9036 7.97091 22.7356C9.14695 22.3035 13.6351 22.3035 15.0511 22.7356ZM43.9 23.2636L45.316 24.0076L45.388 30.5358L45.436 37.04H39.1958H32.9556V30.6558C32.9556 23.5996 32.8596 24.1036 34.5157 23.1916C35.6917 22.5436 36.5317 22.4235 39.5798 22.4715C42.3159 22.5196 42.5559 22.5676 43.9 23.2636ZM31.7556 30.4398V37.04H30.1956H28.6355V34.5199C28.6355 31.5438 28.3715 30.7278 27.0515 29.6238C25.6834 28.5197 25.2274 28.4717 24.0034 29.3357C22.3473 30.5358 22.0833 31.2078 21.9633 34.3279L21.8433 37.04H20.3313H18.7952V30.4398V23.8396H25.2754H31.7556V30.4398Z" fill="#858585"/>
<path d="M19.5156 18.3193C19.5156 19.1113 19.5876 19.2793 19.9956 19.2793C20.4037 19.2793 20.4757 19.1113 20.4757 18.3193C20.4757 17.5272 20.4037 17.3592 19.9956 17.3592C19.5876 17.3592 19.5156 17.5272 19.5156 18.3193Z" fill="#858585"/>
<path d="M21.2909 17.6954C21.0509 18.2955 21.2909 19.1595 21.7469 19.2315C22.0829 19.3035 22.1549 19.1355 22.1549 18.3435C22.1549 17.6234 22.0589 17.3594 21.7949 17.3594C21.5789 17.3594 21.3629 17.5034 21.2909 17.6954Z" fill="#FFCC05"/>
<path d="M23.1152 18.3193C23.1152 19.1113 23.1872 19.2793 23.5952 19.2793C24.0033 19.2793 24.0753 19.1113 24.0753 18.3193C24.0753 17.5272 24.0033 17.3592 23.5952 17.3592C23.1872 17.3592 23.1152 17.5272 23.1152 18.3193Z" fill="#858585"/>
<path d="M24.8915 17.6954C24.6515 18.2955 24.8915 19.1595 25.3475 19.2315C25.6835 19.3035 25.7555 19.1355 25.7555 18.3435C25.7555 17.6234 25.6595 17.3594 25.3955 17.3594C25.1795 17.3594 24.9635 17.5034 24.8915 17.6954Z" fill="#FFCC05"/>
<path d="M26.7158 18.3435C26.7158 19.1355 26.7878 19.3035 27.1478 19.2315C27.4358 19.1835 27.5798 18.8955 27.6278 18.2475C27.6998 17.4794 27.6278 17.3594 27.2198 17.3594C26.7878 17.3594 26.7158 17.5034 26.7158 18.3435Z" fill="#858585"/>
<path d="M28.4911 17.6954C28.2511 18.2955 28.4911 19.1595 28.9471 19.2315C29.2831 19.3035 29.3551 19.1355 29.3551 18.3435C29.3551 17.6234 29.2591 17.3594 28.9951 17.3594C28.7791 17.3594 28.5631 17.5034 28.4911 17.6954Z" fill="#FFCC05"/>
<path d="M30.3154 18.3193C30.3154 19.1113 30.3874 19.2793 30.7954 19.2793C31.2035 19.2793 31.2755 19.1113 31.2755 18.3193C31.2755 17.5272 31.2035 17.3592 30.7954 17.3592C30.3874 17.3592 30.3154 17.5272 30.3154 18.3193Z" fill="#858585"/>
<path d="M11.2832 18.7033C11.1872 18.7993 11.1152 19.3033 11.1152 19.8073C11.1152 20.5754 11.1872 20.7434 11.5472 20.6714C11.8593 20.6234 11.9553 20.3594 11.9553 19.6633C11.9553 18.7753 11.6432 18.3433 11.2832 18.7033Z" fill="#FFCC05"/>
<path d="M8.40336 18.9435C8.30735 19.0395 8.23535 19.5436 8.23535 20.0476C8.23535 20.8156 8.30735 20.9836 8.66736 20.9116C8.97937 20.8636 9.07538 20.5996 9.07538 19.9036C9.07538 19.0155 8.76337 18.5835 8.40336 18.9435Z" fill="#858585"/>
<path d="M14.0669 18.9675C13.6109 19.1355 13.6829 20.6956 14.1389 20.8876C14.5709 21.0556 14.9549 20.5996 14.9549 19.8555C14.9549 19.2555 14.4989 18.8235 14.0669 18.9675Z" fill="#858585"/>
<path d="M38.8119 18.8716C38.5719 19.5196 38.8119 20.5996 39.1959 20.5996C39.4599 20.5996 39.5559 20.3356 39.5559 19.6636C39.5559 18.7036 39.0759 18.1995 38.8119 18.8716Z" fill="#FFCC05"/>
<path d="M35.9322 19.1116C35.6681 19.8077 35.9322 20.8397 36.3882 20.9117C36.7722 20.9837 36.8202 20.8637 36.7482 19.9757C36.6762 18.9436 36.1962 18.4396 35.9322 19.1116Z" fill="#858585"/>
<path d="M41.6918 19.1113C41.4518 19.7593 41.6918 20.8394 42.0758 20.8394C42.3398 20.8394 42.4358 20.5753 42.4358 19.9033C42.4358 18.9433 41.9558 18.4393 41.6918 19.1113Z" fill="#858585"/>
<path d="M11.0188 23.7195C10.8028 24.3195 10.8508 27.2716 11.0908 27.6556C11.2108 27.8476 11.4748 27.9196 11.6908 27.8476C12.2668 27.6076 12.1468 23.5275 11.5708 23.4075C11.3548 23.3595 11.1148 23.5035 11.0188 23.7195Z" fill="#858585"/>
<path d="M8.28302 26.5277C8.33102 28.3278 8.42702 28.7598 8.71503 28.7598C9.00304 28.7598 9.07504 28.3518 9.07504 26.5997C9.07504 24.7276 9.02704 24.4396 8.64303 24.3676C8.25902 24.2956 8.21102 24.4876 8.28302 26.5277Z" fill="#858585"/>
<path d="M13.9229 24.4874C13.8269 24.5594 13.7549 25.5435 13.7549 26.6475C13.7549 28.2556 13.8269 28.6876 14.1389 28.8076C14.3549 28.8796 14.6189 28.8076 14.7389 28.6156C14.9789 28.2316 15.0269 25.2795 14.8109 24.7035C14.6669 24.3194 14.1869 24.1994 13.9229 24.4874Z" fill="#858585"/>
<path d="M38.8838 23.5278C38.7878 23.5998 38.7158 24.6318 38.7158 25.8079C38.7158 27.7519 38.7638 27.9199 39.1958 27.9199C39.6518 27.9199 39.6758 27.7519 39.6758 25.6399C39.6758 23.9118 39.6038 23.3598 39.3638 23.3598C39.1718 23.3598 38.9558 23.4318 38.8838 23.5278Z" fill="#858585"/>
<path d="M35.9314 24.6317C35.8594 24.8237 35.8354 25.8078 35.8834 26.8638C35.9554 28.4478 36.0274 28.7599 36.3874 28.8319C36.7474 28.9039 36.7954 28.6879 36.7954 26.6238C36.7954 24.7037 36.7234 24.3197 36.4354 24.3197C36.2194 24.3197 36.0034 24.4637 35.9314 24.6317Z" fill="#858585"/>
<path d="M41.7153 24.6316C41.6433 24.7997 41.5953 25.8077 41.6433 26.8637C41.6913 28.3518 41.7873 28.7598 42.0754 28.7598C42.3634 28.7598 42.4354 28.3518 42.4354 26.6237C42.4354 25.1117 42.3394 24.4396 42.1474 24.3916C41.9794 24.3196 41.7873 24.4396 41.7153 24.6316Z" fill="#858585"/>
<path d="M19.9951 27.4395C19.9951 29.9116 20.0191 30.0796 20.4751 30.0796C20.9311 30.0796 20.9551 29.9116 20.9551 27.4395C20.9551 24.9674 20.9311 24.7994 20.4751 24.7994C20.0191 24.7994 19.9951 24.9674 19.9951 27.4395Z" fill="#858585"/>
<path d="M29.8359 27.4395C29.8359 29.9116 29.8599 30.0796 30.316 30.0796C30.772 30.0796 30.796 29.9116 30.796 27.4395C30.796 24.9674 30.772 24.7994 30.316 24.7994C29.8599 24.7994 29.8359 24.9674 29.8359 27.4395Z" fill="#858585"/>
<path d="M22.4977 32.0091C22.772 30.9041 23.8614 30 25 30C25.5 30 26.6889 31.0829 26.9977 32.0091C27.4976 33.5088 26.9977 37.0091 26.9977 37.0091L22.4965 37.0079C22.4965 37.0079 22.1257 33.5079 22.4977 32.0091Z" fill="#FFCC05"/>
</g>
<defs fill="#000000">
<clipPath id="clip0_8776_480" fill="#000000">
<rect width="45" height="24.6788" fill="white" transform="matrix(1 0 0 -1 3 38)"/>
</clipPath>
</defs>
</svg>